TITLE ""
FILE "Disc3Track59.mp3" MP3
  TRACK 01 AUDIO
    TITLE "Disc3Track59_01"
    INDEX 01 00:00:00
  TRACK 02 AUDIO
    TITLE "Disc3Track59_02"
    INDEX 01 00:01:18
  TRACK 03 AUDIO
    TITLE "Disc3Track59_03"
    INDEX 01 00:02:09
  TRACK 04 AUDIO
    TITLE "Disc3Track59_04"
    INDEX 01 00:03:42
  TRACK 05 AUDIO
    TITLE "Disc3Track59_05"
    INDEX 01 00:04:06
  TRACK 06 AUDIO
    TITLE "Disc3Track59_06"
    INDEX 01 00:05:51
  TRACK 07 AUDIO
    TITLE "Disc3Track59_07"
    INDEX 01 00:06:50
  TRACK 08 AUDIO
    TITLE "Disc3Track59_08"
    INDEX 01 00:08:18
  TRACK 09 AUDIO
    TITLE "Disc3Track59_09"
    INDEX 01 00:10:13
  TRACK 10 AUDIO
    TITLE "Disc3Track59_10"
    INDEX 01 00:10:44
  TRACK 11 AUDIO
    TITLE "Disc3Track59_11"
    INDEX 01 00:12:13
  TRACK 12 AUDIO
    TITLE "Disc3Track59_12"
    INDEX 01 00:14:01
  TRACK 13 AUDIO
    TITLE "Disc3Track59_13"
    INDEX 01 00:15:45
  TRACK 14 AUDIO
    TITLE "Disc3Track59_14"
    INDEX 01 00:21:09
  TRACK 15 AUDIO
    TITLE "Disc3Track59_15"
    INDEX 01 00:21:38
  TRACK 16 AUDIO
    TITLE "Disc3Track59_16"
    INDEX 01 00:23:03
  TRACK 17 AUDIO
    TITLE "Disc3Track59_17"
    INDEX 01 00:25:22
  TRACK 18 AUDIO
    TITLE "Disc3Track59_18"
    INDEX 01 00:26:59
  TRACK 19 AUDIO
    TITLE "Disc3Track59_19"
    INDEX 01 00:27:25
  TRACK 20 AUDIO
    TITLE "Disc3Track59_20"
    INDEX 01 00:28:61
  TRACK 21 AUDIO
    TITLE "Disc3Track59_21"
    INDEX 01 00:31:38
  TRACK 22 AUDIO
    TITLE "Disc3Track59_22"
    INDEX 01 00:32:71
  TRACK 23 AUDIO
    TITLE "Disc3Track59_23"
    INDEX 01 00:36:51
  TRACK 24 AUDIO
    TITLE "Disc3Track59_24"
    INDEX 01 00:37:04
  TRACK 25 AUDIO
    TITLE "Disc3Track59_25"
    INDEX 01 00:38:30
  TRACK 26 AUDIO
    TITLE "Disc3Track59_26"
    INDEX 01 00:40:14
  TRACK 27 AUDIO
    TITLE "Disc3Track59_27"
    INDEX 01 00:41:37
  TRACK 28 AUDIO
    TITLE "Disc3Track59_28"
    INDEX 01 00:44:33
  TRACK 29 AUDIO
    TITLE "Disc3Track59_29"
    INDEX 01 00:44:62
  TRACK 30 AUDIO
    TITLE "Disc3Track59_30"
    INDEX 01 00:46:06
  TRACK 31 AUDIO
    TITLE "Disc3Track59_31"
    INDEX 01 00:48:05
  TRACK 32 AUDIO
    TITLE "Disc3Track59_32"
    INDEX 01 00:49:21
  TRACK 33 AUDIO
    TITLE "Disc3Track59_33"
    INDEX 01 00:51:08
  TRACK 34 AUDIO
    TITLE "Disc3Track59_34"
    INDEX 01 00:51:39
  TRACK 35 AUDIO
    TITLE "Disc3Track59_35"
    INDEX 01 00:52:62
  TRACK 36 AUDIO
    TITLE "Disc3Track59_36"
    INDEX 01 00:55:11
  TRACK 37 AUDIO
    TITLE "Disc3Track59_37"
    INDEX 01 00:56:34
  TRACK 38 AUDIO
    TITLE "Disc3Track59_38"
    INDEX 01 00:58:37
  TRACK 39 AUDIO
    TITLE "Disc3Track59_39"
    INDEX 01 00:58:68
  TRACK 40 AUDIO
    TITLE "Disc3Track59_40"
    INDEX 01 01:00:18
  TRACK 41 AUDIO
    TITLE "Disc3Track59_41"
    INDEX 01 01:01:24
  TRACK 42 AUDIO
    TITLE "Disc3Track59_42"
    INDEX 01 01:02:47
  TRACK 43 AUDIO
    TITLE "Disc3Track59_43"
    INDEX 01 01:04:40
  TRACK 44 AUDIO
    TITLE "Disc3Track59_44"
    INDEX 01 01:04:69
  TRACK 45 AUDIO
    TITLE "Disc3Track59_45"
    INDEX 01 01:06:03
  TRACK 46 AUDIO
    TITLE "Disc3Track59_46"
    INDEX 01 01:07:58
  TRACK 47 AUDIO
    TITLE "Disc3Track59_47"
    INDEX 01 01:08:67
  TRACK 48 AUDIO
    TITLE "Disc3Track59_48"
    INDEX 01 01:12:25
  TRACK 49 AUDIO
    TITLE "Disc3Track59_49"
    INDEX 01 01:12:59
  TRACK 50 AUDIO
    TITLE "Disc3Track59_50"
    INDEX 01 01:13:70
  TRACK 51 AUDIO
    TITLE "Disc3Track59_51"
    INDEX 01 01:15:08
  TRACK 52 AUDIO
    TITLE "Disc3Track59_52"
    INDEX 01 01:16:13
  TRACK 53 AUDIO
    TITLE "Disc3Track59_53"
    INDEX 01 01:17:62
  TRACK 54 AUDIO
    TITLE "Disc3Track59_54"
    INDEX 01 01:18:18
  TRACK 55 AUDIO
    TITLE "Disc3Track59_55"
    INDEX 01 01:19:45
  TRACK 56 AUDIO
    TITLE "Disc3Track59_56"
    INDEX 01 01:21:54
  TRACK 57 AUDIO
    TITLE "Disc3Track59_57"
    INDEX 01 01:23:04
  TRACK 58 AUDIO
    TITLE "Disc3Track59_58"
    INDEX 01 01:26:10
  TRACK 59 AUDIO
    TITLE "Disc3Track59_59"
    INDEX 01 01:26:41
  TRACK 60 AUDIO
    TITLE "Disc3Track59_60"
    INDEX 01 01:28:07
  TRACK 61 AUDIO
    TITLE "Disc3Track59_61"
    INDEX 01 01:30:04
  TRACK 62 AUDIO
    TITLE "Disc3Track59_62"
    INDEX 01 01:31:42
  TRACK 63 AUDIO
    TITLE "Disc3Track59_63"
    INDEX 01 01:35:34
  TRACK 64 AUDIO
    TITLE "Disc3Track59_64"
    INDEX 01 01:35:66
  TRACK 65 AUDIO
    TITLE "Disc3Track59_65"
    INDEX 01 01:37:31
  TRACK 66 AUDIO
    TITLE "Disc3Track59_66"
    INDEX 01 01:38:43
  TRACK 67 AUDIO
    TITLE "Disc3Track59_67"
    INDEX 01 01:40:08
